PathFileType	4	(x/y/z)	A01_PREF_T0018.trc
DataRate	CameraRate	NumFrames	NumMarkers	Units	OrigDataRate	OrigDataStartFrame	OrigNumFrames
240	240	11	48	mm	240	72	285
Frame#	Time	TOP_HEAD			R_AC			L_AC			R_ASIS			L_ASIS			R_PSIS			L_PSIS			SACRAL			L_IC			R_IC			L_GT			R_GT			R_LAT_KNEE			R_MED_KNEE			L_MED_KNEE			L_LAT_KNEE			R_TOE			L_TOE			R_1ST_MET			L_1ST_MET			L_5TH_MET			R_5TH_MET			R_LAT_ANK			R_MED_ANK			L_MED_ANK			L_LAT_ANK			L_HEEL_SUP			R_HEEL_SUP			L_HEEL_LAT			R_HEEL_LAT			L_HEEL_MED			R_HEEL_MED			R_SHANK_PROX_POST			R_SHANK_PROX_ANT			R_SHANK_DIST_ANT			R_SHANK_DIST_POST			R_THIGH_PROX_POST			R_THIGH_PROX_ANT			R_THIGH_DIST_ANT			R_THIGH_DIST_POST			L_SHANK_PROX_ANT			L_SHANK_PROX_POST			L_SHANK_DIST_POST			L_SHANK_DIST_ANT			L_THIGH_PROX_ANT			L_THIGH_PROX_POST			L_THIGH_DIST_POST			L_THIGH_DIST_ANT			
		X1	Y1	Z1	X2	Y2	Z2	X3	Y3	Z3	X4	Y4	Z4	X5	Y5	Z5	X6	Y6	Z6	X7	Y7	Z7	X8	Y8	Z8	X9	Y9	Z9	X10	Y10	Z10	X11	Y11	Z11	X12	Y12	Z12	X13	Y13	Z13	X14	Y14	Z14	X15	Y15	Z15	X16	Y16	Z16	X17	Y17	Z17	X18	Y18	Z18	X19	Y19	Z19	X20	Y20	Z20	X21	Y21	Z21	X22	Y22	Z22	X23	Y23	Z23	X24	Y24	Z24	X25	Y25	Z25	X26	Y26	Z26	X27	Y27	Z27	X28	Y28	Z28	X29	Y29	Z29	X30	Y30	Z30	X31	Y31	Z31	X32	Y32	Z32	X33	Y33	Z33	X34	Y34	Z34	X35	Y35	Z35	X36	Y36	Z36	X37	Y37	Z37	X38	Y38	Z38	X39	Y39	Z39	X40	Y40	Z40	X41	Y41	Z41	X42	Y42	Z42	X43	Y43	Z43	X44	Y44	Z44	X45	Y45	Z45	X46	Y46	Z46	X47	Y47	Z47	X48	Y48	Z48	

72	0.29688	-139.31	1743	278.81	-364.15	1570.2	532.48	-397.92	1535.7	75.305	-397.17	1102.5	544.2	-379.47	1032.9	195.78	-605.54	1086.2	413.4	-594.66	1091.1	281.19	-615.44	1058.4	346.25	-408.49	1136.9	147.98	-427.48	1209.3	539.77	-438.66	953.3	154.86	-454.35	982.57	587.02	-398.5	579.44	557.98	-348.49	561.04	430.34	-358.26	560.74	370.87	-381.98	567.76	215	-612.05	68.499	466.64	-229.95	83.747	269.33	-676.09	117.41	411.06	-307.47	57.236	328.34	-341.22	47.163	199.82	-709.72	140	538.49	-730.71	273.63	505.87	-707.64	266.96	405.95	-432.92	127.42	315.05	-465.97	120.27	248.55	-553.32	74.609	291.33	-810.64	321.08	434.79	-541.87	46.348	259.58	-826.68	303.18	469.19	-530.6	45.126	323.25	-824.46	296.25	410.14	-573.77	516.48	541.93	-532.84	462.16	569.15	-580.27	406.09	548.59	-616.44	445.75	531.07	-467.65	834.59	576.44	-402.72	867.05	581.07	-382.72	777.4	581.57	-444.38	747.78	573.46	-341.71	482.12	226.84	-397.04	485.81	217.63	-407.51	424.31	226.62	-353.71	427.57	234.08	-358.53	819.06	189.22	-429.43	817.5	175.49	-410.68	743.99	187.34	-345.84	746.79	199.29
73	0.30106	-134.3	1743.6	279.23	-359.73	1570.8	532.61	-392.47	1536.5	75.329	-391.75	1103.3	543.8	-374.22	1033.2	195.46	-600.28	1086.7	413.02	-589.37	1091.7	280.8	-610.15	1058.9	345.88	-403.19	1137.5	147.69	-422.45	1209.8	539.57	-433.63	953.68	154.61	-448.72	983.48	586.72	-389.03	580.69	557.75	-338.77	562.61	430.23	-355.93	560.6	371	-379.58	567.75	215.12	-593.62	69.049	467.25	-229.84	83.629	269.31	-659	115.89	411.44	-307.4	57.211	328.3	-341.18	47.178	199.83	-693.2	138.09	538.83	-717.75	270.89	505.65	-694.38	264.4	405.68	-432.52	127.64	315.07	-465.59	120.65	248.57	-553.14	75.039	291.33	-798.95	316.04	434.34	-541.8	46.722	259.59	-814.49	297.84	468.8	-530.58	45.526	323.25	-812.06	290.71	409.72	-563.74	515.61	541.92	-522.16	461.79	569.1	-568.92	405.14	548.56	-605.56	444.36	531.04	-460.55	835.31	576.34	-395.82	868.37	580.89	-375.08	778.9	581.43	-436.48	748.71	573.49	-339.72	481.92	226.96	-395.03	485.87	217.73	-405.78	424.43	226.71	-351.96	427.42	234.19	-354.35	818.97	189.17	-425.18	817.87	175.37	-406.91	744.25	187.3	-342.07	746.64	199.28
74	0.30524	-129.29	1744.3	279.68	-355.29	1571.3	532.74	-387.02	1537.4	75.369	-386.34	1104.2	543.41	-368.98	1033.5	195.13	-595.03	1087.3	412.65	-584.09	1092.2	280.42	-604.86	1059.4	345.52	-397.89	1138	147.41	-417.42	1210.4	539.38	-428.62	954.05	154.36	-443.12	984.39	586.43	-379.67	581.94	557.51	-329.15	564.22	430.13	-353.61	560.46	371.13	-377.21	567.75	215.25	-575.06	69.503	467.85	-229.72	83.504	269.3	-641.71	114.26	411.82	-307.32	57.183	328.25	-341.14	47.193	199.84	-676.51	136.02	539.16	-704.62	267.92	505.46	-680.95	261.63	405.43	-432.12	127.87	315.09	-465.21	121.04	248.58	-552.96	75.487	291.33	-787.03	310.72	433.93	-541.73	47.112	259.6	-802.07	292.22	468.44	-530.57	45.94	323.25	-799.39	284.9	409.34	-553.74	514.62	541.87	-511.5	461.35	569.04	-557.53	404.1	548.54	-594.67	442.84	530.99	-453.53	836.06	576.24	-389	869.69	580.71	-367.52	780.41	581.3	-428.66	749.67	573.51	-337.74	481.73	227.09	-393.03	485.94	217.84	-404.06	424.56	226.81	-350.24	427.29	234.31	-350.2	818.87	189.14	-420.95	818.23	175.26	-403.15	744.5	187.27	-338.34	746.48	199.29
75	0.30942	-124.28	1744.9	280.14	-350.83	1571.9	532.87	-381.57	1538.3	75.424	-380.93	1105	543.03	-363.75	1033.8	194.81	-589.8	1087.9	412.3	-578.82	1092.8	280.05	-599.58	1059.9	345.18	-392.6	1138.6	147.12	-412.39	1210.9	539.2	-423.63	954.4	154.13	-437.55	985.31	586.16	-370.42	583.2	557.27	-319.62	565.86	430.04	-351.3	560.32	371.27	-374.87	567.75	215.39	-556.38	69.869	468.43	-229.6	83.374	269.28	-624.24	112.52	412.2	-307.25	57.153	328.2	-341.1	47.207	199.85	-659.66	133.79	539.48	-691.31	264.71	505.28	-667.34	258.65	405.22	-431.71	128.1	315.12	-464.82	121.43	248.6	-552.79	75.95	291.33	-774.87	305.13	433.54	-541.66	47.518	259.6	-789.42	286.33	468.11	-530.55	46.367	323.24	-786.47	278.86	408.98	-543.78	513.53	541.77	-500.86	460.85	568.97	-546.13	402.97	548.53	-583.76	441.2	530.92	-446.59	836.81	576.14	-382.26	871.02	580.54	-360.04	781.93	581.17	-420.92	750.64	573.54	-335.78	481.54	227.23	-391.04	486.01	217.96	-402.36	424.69	226.92	-348.52	427.16	234.43	-346.07	818.77	189.12	-416.74	818.59	175.16	-399.42	744.75	187.24	-334.63	746.32	199.31
76	0.3136	-119.29	1745.5	280.62	-346.36	1572.4	533.01	-376.12	1539.3	75.492	-375.52	1105.8	542.65	-358.52	1034.1	194.48	-584.57	1088.4	411.96	-573.57	1093.3	279.7	-594.32	1060.5	344.85	-387.31	1139.2	146.84	-407.37	1211.4	539.04	-418.65	954.74	153.91	-432	986.23	585.91	-361.29	584.47	557.03	-310.21	567.54	429.96	-348.98	560.19	371.42	-372.54	567.76	215.54	-537.59	70.159	469.01	-229.47	83.239	269.27	-606.59	110.69	412.57	-307.17	57.119	328.15	-341.06	47.222	199.87	-642.65	131.42	539.81	-677.82	261.29	505.13	-653.55	255.47	405.04	-431.3	128.35	315.15	-464.43	121.83	248.62	-552.61	76.427	291.32	-762.48	299.29	433.2	-541.58	47.936	259.6	-776.53	280.21	467.82	-530.53	46.805	323.23	-773.28	272.6	408.65	-533.85	512.35	541.62	-490.25	460.3	568.88	-534.72	401.77	548.52	-572.85	439.45	530.82	-439.72	837.58	576.04	-375.59	872.35	580.37	-352.65	783.45	581.04	-413.27	751.63	573.56	-333.84	481.36	227.37	-389.08	486.08	218.08	-400.67	424.83	227.02	-346.82	427.04	234.57	-341.95	818.67	189.11	-412.55	818.94	175.06	-395.7	745	187.22	-330.95	746.16	199.36
77	0.31778	-114.29	1746.1	281.12	-341.88	1573	533.14	-370.67	1540.2	75.572	-370.11	1106.6	542.28	-353.31	1034.4	194.16	-579.36	1089	411.63	-568.33	1093.8	279.37	-589.06	1061	344.54	-382.03	1139.8	146.55	-402.35	1211.9	538.89	-413.69	955.07	153.7	-426.47	987.14	585.68	-352.27	585.73	556.78	-300.91	569.24	429.89	-346.66	560.05	371.57	-370.23	567.77	215.7	-518.71	70.381	469.59	-229.34	83.099	269.25	-588.77	108.8	412.95	-307.1	57.082	328.09	-341.01	47.237	199.88	-625.49	128.93	540.14	-664.16	257.67	504.99	-639.59	252.12	404.89	-430.89	128.6	315.19	-464.03	122.24	248.63	-552.43	76.915	291.31	-749.85	293.22	432.89	-541.5	48.364	259.6	-763.4	273.86	467.56	-530.51	47.252	323.21	-759.83	266.15	408.35	-523.97	511.07	541.41	-479.68	459.71	568.77	-523.3	400.49	548.51	-561.94	437.6	530.7	-432.91	838.36	575.94	-369	873.67	580.22	-345.35	784.98	580.92	-405.7	752.62	573.59	-331.91	481.19	227.53	-387.13	486.16	218.22	-398.99	424.97	227.13	-345.13	426.93	234.71	-337.85	818.57	189.11	-408.38	819.28	174.98	-392.01	745.24	187.21	-327.29	745.99	199.41
78	0.32196	-109.3	1746.7	281.64	-337.37	1573.5	533.28	-365.22	1541.1	75.663	-364.7	1107.4	541.92	-348.11	1034.7	193.85	-574.16	1089.5	411.33	-563.11	1094.3	279.05	-583.82	1061.4	344.25	-376.74	1140.3	146.27	-397.33	1212.3	538.75	-408.74	955.38	153.5	-420.96	988.04	585.47	-343.37	586.99	556.54	-291.72	570.95	429.83	-344.34	559.92	371.73	-367.95	567.78	215.86	-499.75	70.547	470.16	-229.2	82.954	269.24	-570.79	106.84	413.34	-307.02	57.042	328.03	-340.96	47.253	199.9	-608.19	126.33	540.47	-650.32	253.86	504.87	-625.45	248.61	404.78	-430.48	128.87	315.23	-463.64	122.65	248.65	-552.26	77.412	291.3	-736.98	286.95	432.62	-541.41	48.802	259.6	-750.03	267.32	467.33	-530.48	47.706	323.19	-746.12	259.51	408.08	-514.13	509.7	541.14	-469.15	459.07	568.63	-511.87	399.16	548.5	-551.02	435.65	530.55	-426.16	839.14	575.85	-362.47	874.97	580.06	-338.12	786.49	580.81	-398.21	753.62	573.61	-330	481.02	227.69	-385.19	486.25	218.35	-397.33	425.12	227.25	-343.45	426.82	234.85	-333.77	818.48	189.12	-404.24	819.62	174.9	-388.32	745.49	187.2	-323.66	745.83	199.48
79	0.32614	-104.31	1747.2	282.18	-332.85	1574	533.42	-359.76	1542.1	75.764	-359.29	1108.1	541.56	-342.91	1034.9	193.53	-568.96	1090	411.05	-557.9	1094.8	278.76	-578.58	1061.9	343.98	-371.46	1140.9	146	-392.32	1212.8	538.62	-403.81	955.69	153.31	-415.46	988.93	585.27	-334.58	588.24	556.29	-282.67	572.68	429.77	-342.02	559.79	371.88	-365.68	567.8	216.02	-480.72	70.67	470.73	-229.06	82.805	269.22	-552.67	104.83	413.74	-306.94	56.999	327.96	-340.91	47.269	199.91	-590.76	123.63	540.81	-636.3	249.88	504.78	-611.14	244.96	404.71	-430.06	129.15	315.28	-463.24	123.07	248.66	-552.09	77.917	291.29	-723.86	280.49	432.39	-541.32	49.245	259.59	-736.41	260.59	467.15	-530.44	48.165	323.17	-732.14	252.71	407.85	-504.34	508.24	540.8	-458.66	458.39	568.47	-500.44	397.77	548.49	-540.11	433.6	530.37	-419.46	839.92	575.76	-356.01	876.27	579.92	-330.96	788	580.7	-390.79	754.62	573.62	-328.09	480.87	227.85	-383.26	486.34	218.49	-395.67	425.27	227.36	-341.78	426.73	235	-329.71	818.38	189.13	-400.12	819.95	174.84	-384.66	745.73	187.2	-320.05	745.67	199.56
80	0.33033	-99.325	1747.7	282.73	-328.31	1574.5	533.55	-354.29	1543	75.873	-353.88	1108.8	541.21	-337.73	1035.1	193.23	-563.78	1090.5	410.79	-552.7	1095.2	278.49	-573.36	1062.4	343.74	-366.17	1141.5	145.73	-387.32	1213.2	538.49	-398.89	955.98	153.14	-409.97	989.81	585.1	-325.92	589.48	556.03	-273.73	574.41	429.71	-339.69	559.66	372.04	-363.42	567.83	216.19	-461.63	70.763	471.31	-228.92	82.652	269.2	-534.41	102.79	414.16	-306.87	56.953	327.89	-340.86	47.285	199.93	-573.19	120.86	541.16	-622.1	245.75	504.7	-596.66	241.17	404.68	-429.65	129.43	315.34	-462.83	123.51	248.67	-551.91	78.427	291.27	-710.5	273.86	432.19	-541.23	49.694	259.59	-722.55	253.69	467	-530.38	48.627	323.15	-717.91	245.77	407.65	-494.59	506.7	540.4	-448.22	457.68	568.28	-489.02	396.33	548.47	-529.2	431.48	530.15	-412.82	840.69	575.67	-349.6	877.54	579.78	-323.88	789.48	580.59	-383.45	755.61	573.63	-326.21	480.72	228.02	-381.34	486.44	218.64	-394.02	425.43	227.48	-340.12	426.64	235.15	-325.66	818.28	189.15	-396.02	820.28	174.78	-381.01	745.97	187.2	-316.46	745.51	199.65
81	0.33451	-94.334	1748.2	283.29	-323.75	1574.9	533.69	-348.82	1543.9	75.989	-348.47	1109.5	540.87	-332.55	1035.3	192.93	-558.6	1090.9	410.55	-547.52	1095.7	278.24	-568.15	1062.8	343.51	-360.88	1142.1	145.46	-382.34	1213.6	538.37	-393.99	956.26	152.99	-404.49	990.66	584.95	-317.38	590.71	555.77	-264.93	576.13	429.65	-337.36	559.54	372.2	-361.18	567.86	216.37	-442.48	70.84	471.91	-228.77	82.495	269.19	-516.02	100.74	414.6	-306.79	56.904	327.81	-340.8	47.303	199.94	-555.5	118.04	541.52	-607.73	241.48	504.65	-582.01	237.26	404.69	-429.23	129.72	315.39	-462.42	123.95	248.69	-551.73	78.94	291.26	-696.9	267.08	432.03	-541.13	50.146	259.58	-708.44	246.66	466.89	-530.31	49.089	323.13	-703.42	238.72	407.49	-484.89	505.07	539.92	-437.83	456.93	568.06	-477.6	394.84	548.44	-518.29	429.27	529.9	-406.21	841.46	575.59	-343.25	878.79	579.66	-316.87	790.95	580.48	-376.18	756.59	573.63	-324.33	480.58	228.18	-379.44	486.54	218.78	-392.38	425.58	227.6	-338.47	426.56	235.31	-321.63	818.19	189.19	-391.94	820.6	174.74	-377.38	746.21	187.22	-312.89	745.36	199.75
82	0.33869	-89.34	1748.7	283.87	-319.17	1575.4	533.83	-343.33	1544.9	76.112	-343.06	1110.1	540.54	-327.38	1035.5	192.64	-553.43	1091.4	410.34	-542.34	1096.1	278.02	-562.96	1063.2	343.32	-355.57	1142.6	145.21	-377.37	1214	538.26	-389.1	956.52	152.86	-399.01	991.49	584.83	-308.96	591.91	555.49	-256.26	577.84	429.59	-335.03	559.41	372.35	-358.95	567.89	216.54	-423.29	70.915	472.52	-228.63	82.336	269.17	-497.52	98.687	415.06	-306.71	56.853	327.73	-340.74	47.322	199.96	-537.69	115.17	541.9	-593.19	237.1	504.62	-567.2	233.26	404.73	-428.82	130.03	315.45	-462.01	124.39	248.7	-551.55	79.455	291.24	-683.06	260.17	431.9	-541.04	50.6	259.57	-694.08	239.51	466.82	-530.21	49.55	323.1	-688.67	231.56	407.36	-475.23	503.37	539.38	-427.49	456.15	567.81	-466.19	393.32	548.41	-507.38	426.99	529.61	-399.65	842.21	575.52	-336.95	880.01	579.54	-309.92	792.39	580.37	-368.98	757.56	573.62	-322.46	480.44	228.35	-377.54	486.64	218.93	-390.74	425.74	227.72	-336.83	426.49	235.46	-317.62	818.09	189.24	-387.88	820.92	174.71	-373.77	746.44	187.23	-309.34	745.2	199.86
